{"title":"Adolfo Aristarain - Time for Revenge (1981)","uid":8468474,"size":1512680996,"categoryP":"video","categoryS":"movies","magnet":"?xt=urn:btih:95b1a07d01e2d3830bb08be8f1752c59ec0cdafe&amp;dn=Adolfo+Aristarain+-+Time+for+Revenge+%281981%29&amp;tr=udp%3A%2F%2Ftracker.openbittorrent.com%3A80&amp;tr=udp%3A%2F%2Fopen.demonii.com%3A1337&amp;tr=udp%3A%2F%2Ftracker.coppersurfer.tk%3A6969&amp;tr=udp%3A%2F%2Fexodus.desync.com%3A6969","seeders":0,"leechers":1,"uploader":"Aaaameida","files":-1,"time":1368420688,"description":"Language: Spanish\n\nSubtitle: English and Portuguese\n &lt;a href=&quot;\nhttp://www.imdb.com/title/tt0083203&quot; rel=&quot;nofollow&quot; target=&quot;_NEW&quot;&gt;\nhttp://www.imdb.com/title/tt0083203&lt;/a&gt;\n\nA union organizing demolition worker and a friend of his decide to blackmail the corrupt company they work for setting up a fake accident. Because of a miscalculation the friend dies, but he sticks with the plan and demands a big sum of money as indemnity. When the company refuses to pay, determined to prove the worker is lying, he is forced to make a tragic decision in order to win.\n\n\n      Format : AVI\n      Format/Info : Audio Video Interleave\n      Format profile : OpenDML\n      File size : 1.41 GiB\n      Duration : 1h 47mn\n      Overall bit rate : 1 868 Kbps\n      Writing application : AVI-Mux GUI 1.17.8, Aug 30 2008  12:36:58\n   Video #0\n      ID : 0\n      Format : MPEG-4 Visual\n      Format profile : AdvancedSimple@L5\n      Format settings, BVOP : Yes\n      Format settings, QPel : No\n      Format settings, GMC : No warppoints\n      Format settings, Matrix : Default (MPEG)\n      Codec ID : XVID\n      Codec ID/Hint : XviD\n      Duration : 1h 47mn\n      Bit rate : 1 699 Kbps\n      Width : 720 pixels\n      Height : 384 pixels\n      Display aspect ratio : 1.875\n      Frame rate : 25.000 fps\n      Resolution : 24 bits\n      Colorimetry : 4:2:0\n      Scan type : Progressive\n      Bits/(Pixel*Frame) : 0.246\n      Stream size : 1.28 GiB (91%)\n      Writing library : XviD 1.2.1 (UTC 2008-12-04)\n   Audio #1\n      ID : 1\n      Format : MPEG Audio\n      Format version : Version 1\n      Format profile : Layer 3\n      Codec ID : 55\n      Codec ID/Hint : MP3\n      Duration : 1h 47mn\n      Bit rate mode : Constant\n      Bit rate : 160 Kbps\n      Channel(s) : 2 channels\n      Sampling rate : 44.1 KHz\n      Resolution : 16 bits\n      Stream size : 124 MiB (9%)\n      Alignment : Aligned on interleaves\n      Interleave, duration : 26 ms (0.65 video frame)\n      Interleave, preload duration : 182 ms\n      Title : Neuer Track 1\n\nUpped KG: marx","torrent":{"xt":"urn:btih:95b1a07d01e2d3830bb08be8f1752c59ec0cdafe","amp;dn":"Adolfo+Aristarain+-+Time+for+Revenge+%281981%29","amp;tr":["udp%3A%2F%2Ftracker.openbittorrent.com%3A80","udp%3A%2F%2Fopen.demonii.com%3A1337","udp%3A%2F%2Ftracker.coppersurfer.tk%3A6969","udp%3A%2F%2Fexodus.desync.com%3A6969"],"infoHash":"95b1a07d01e2d3830bb08be8f1752c59ec0cdafe","infoHashBuffer":{"type":"Buffer","data":[149,177,160,125,1,226,211,131,11,176,139,232,241,117,44,89,236,12,218,254]},"announce":[],"urlList":[]}}